<?xml version="1.0" standalone="no"?>
<!DOCTYPE svg PUBLIC "-//W3C//DTD SVG 20010904//EN"
 "http://www.w3.org/TR/2001/REC-SVG-20010904/DTD/svg10.dtd">
<svg version="1.0" xmlns="http://www.w3.org/2000/svg"
 width="2083.000000pt" height="2083.000000pt" viewBox="0 0 2083.000000 2083.000000"
 preserveAspectRatio="xMidYMid meet">
<metadata>
Created by potrace 1.11, written by Peter Selinger 2001-2013
</metadata>
<g transform="translate(0.000000,2083.000000) scale(0.100000,-0.100000)"
fill="#000000" stroke="none">
<path d="M8507 17534 c-1 -1 -114 -5 -252 -8 -137 -4 -281 -9 -320 -11 -38 -2
-115 -7 -170 -9 -174 -10 -342 -22 -435 -31 -25 -3 -72 -7 -105 -10 -33 -3
-76 -7 -95 -10 -19 -2 -57 -7 -85 -10 -27 -3 -61 -7 -75 -10 -14 -3 -43 -7
-65 -9 -22 -2 -71 -9 -110 -16 -38 -6 -83 -13 -100 -16 -16 -2 -41 -7 -55 -9
-14 -3 -36 -7 -50 -10 -14 -3 -68 -15 -120 -27 -52 -12 -99 -21 -103 -20 -4 1
-16 -2 -26 -7 -10 -6 -30 -12 -45 -15 -136 -25 -522 -177 -626 -247 -14 -9
-52 -34 -85 -55 -127 -81 -282 -224 -377 -349 -159 -210 -274 -486 -347 -830
-27 -128 -28 -132 -36 -196 -3 -30 -8 -61 -10 -69 -2 -8 -7 -44 -10 -80 -3
-36 -8 -76 -10 -90 -6 -40 -23 -254 -32 -408 -3 -48 -6 -712 -8 -1477 -3
-1281 -6 -1485 -20 -1570 -69 -396 -369 -536 -1175 -549 l-105 -2 -2 -957 -1
-957 101 -1 c184 -2 340 -10 445 -25 75 -10 106 -15 126 -19 12 -3 32 -7 46
-9 137 -26 274 -80 359 -144 85 -63 150 -160 181 -266 39 -139 41 -166 46
-1071 6 -1258 15 -1830 29 -2040 3 -38 7 -106 10 -150 3 -44 7 -98 10 -120 2
-22 7 -67 10 -100 3 -33 8 -73 10 -90 3 -16 7 -48 10 -70 24 -182 74 -403 127
-565 201 -617 579 -982 1253 -1210 110 -38 396 -114 469 -125 21 -4 48 -9 60
-11 11 -3 35 -7 51 -10 17 -3 53 -9 80 -14 55 -11 88 -16 155 -25 25 -3 56 -8
70 -10 33 -5 92 -13 160 -20 30 -4 70 -9 88 -11 18 -2 61 -6 95 -9 34 -3 89
-7 122 -10 142 -13 173 -15 235 -20 71 -4 282 -15 425 -21 50 -2 280 -6 513
-10 l422 -7 0 1040 0 1040 -167 1 c-237 1 -438 10 -634 27 -62 5 -163 17 -184
21 -11 2 -40 7 -65 10 -75 10 -261 61 -330 91 -241 104 -385 255 -472 495 -28
80 -62 215 -73 295 -3 21 -7 47 -10 58 -2 11 -7 50 -10 87 -4 37 -8 82 -10
100 -8 80 -15 440 -20 1038 -12 1267 -11 1256 -41 1435 -24 144 -98 399 -126
429 -4 6 -8 15 -8 22 0 34 -155 288 -240 394 -39 49 -187 199 -240 245 -59 51
-188 145 -198 145 -6 0 -12 3 -14 8 -4 10 -87 59 -181 107 -69 36 -75 41 -55
49 92 35 310 161 360 208 7 7 33 29 58 49 74 60 184 171 265 270 12 13 51 70
88 125 137 205 239 471 276 719 6 39 13 86 16 105 9 53 14 361 20 1045 8 960
15 1292 30 1385 2 14 7 50 10 80 38 331 135 579 286 728 113 112 316 218 475
246 13 3 32 7 42 10 51 15 214 40 342 51 36 3 83 8 105 10 62 7 373 17 548 19
l157 1 0 1033 0 1032 -326 -2 c-179 -2 -326 -4 -327 -4z"/>
<path d="M11672 16510 c0 -566 3 -1031 6 -1031 4 -1 75 -3 157 -4 159 -3 500
-15 550 -19 17 -2 66 -6 110 -10 44 -4 91 -9 105 -11 283 -44 346 -60 505
-128 182 -77 327 -219 408 -397 39 -86 86 -251 102 -360 3 -20 7 -45 9 -55 2
-11 7 -51 11 -90 4 -38 8 -83 11 -100 8 -69 17 -628 29 -1915 3 -228 6 -428 8
-445 3 -16 7 -57 11 -90 4 -33 9 -67 11 -75 2 -8 7 -28 10 -45 37 -215 136
-461 262 -654 168 -258 397 -467 669 -612 74 -40 102 -59 92 -65 -7 -5 -15 -9
-18 -9 -30 -4 -234 -129 -330 -204 -111 -86 -169 -139 -283 -263 -60 -64 -237
-321 -237 -342 0 -3 -17 -42 -38 -88 -93 -199 -153 -443 -166 -673 -6 -94 -16
-897 -21 -1625 -2 -283 -6 -549 -9 -590 -8 -110 -16 -202 -21 -230 -2 -14 -7
-43 -10 -65 -69 -481 -269 -730 -680 -845 -42 -12 -86 -23 -98 -26 -48 -10
-276 -43 -338 -49 -134 -13 -447 -26 -661 -28 l-156 -1 0 -1039 0 -1040 452 8
c248 4 480 8 516 10 203 9 535 30 645 41 28 2 70 6 95 9 25 2 74 7 110 10 36
4 76 8 90 10 14 2 50 6 80 10 191 21 650 110 820 159 73 21 173 55 265 91 499
193 819 471 1019 885 63 130 67 140 109 270 53 160 85 301 122 530 2 14 7 48
10 75 4 28 8 57 10 65 4 16 11 88 30 335 16 198 21 538 31 1785 9 1278 9 1268
40 1395 47 196 184 332 405 404 36 12 75 24 87 26 12 3 30 7 40 9 9 2 37 7 62
11 25 4 52 9 61 10 19 4 88 12 179 21 76 7 207 13 338 13 l92 1 -2 957 -3 957
-100 2 c-126 2 -350 13 -390 19 -16 2 -52 7 -80 10 -152 17 -305 58 -410 110
-170 84 -252 196 -297 405 -8 40 -12 401 -13 1340 -3 1469 -9 1782 -40 2085
-2 17 -6 62 -10 100 -4 39 -9 79 -11 90 -3 11 -7 40 -9 65 -3 25 -8 56 -10 70
-11 56 -15 76 -21 114 -3 22 -7 43 -9 47 -2 3 -7 21 -10 40 -12 71 -78 288
-118 384 -92 226 -195 383 -352 540 -190 191 -421 327 -745 438 -95 33 -369
107 -445 121 -16 2 -93 16 -170 30 -77 13 -162 27 -190 31 -27 3 -66 8 -85 11
-105 14 -126 16 -255 29 -33 3 -78 8 -100 10 -57 6 -154 14 -270 20 -55 4
-125 8 -155 10 -222 15 -492 23 -1001 30 l-407 5 0 -1030z"/>
</g>
</svg>
